PathFileType	4	(X/Y/Z)	/Users/niels/Desktop/University/Third Semester/Perception and Action/Exam/Gymnastics Motion Tracking/Code for Gym Tracking/Analyzed Data/Webcam_Backflip/id8_3_baseline_Sports2D/id8_3_baseline_Sports2D_px_person00.trc
DataRate	CameraRate	NumFrames	NumMarkers	Units	OrigDataRate	OrigDataStartFrame	OrigNumFrames
29.8125	29.8125	12	22	m	29.8125	140	160
Frame#	Time	Hip			RHip			RKnee			RAnkle			RBigToe			RSmallToe			RHeel			LHip			LKnee			LAnkle			LBigToe			LSmallToe			LHeel			Neck			Head			Nose			RShoulder			RElbow			RWrist			LShoulder			LElbow			LWrist		
		X1	Y1	Z1	X2	Y2	Z2	X3	Y3	Z3	X4	Y4	Z4	X5	Y5	Z5	X6	Y6	Z6	X7	Y7	Z7	X8	Y8	Z8	X9	Y9	Z9	X10	Y10	Z10	X11	Y11	Z11	X12	Y12	Z12	X13	Y13	Z13	X14	Y14	Z14	X15	Y15	Z15	X16	Y16	Z16	X17	Y17	Z17	X18	Y18	Z18	X19	Y19	Z19	X20	Y20	Z20	X21	Y21	Z21	X22	Y22	Z22
140	4.696016771488469	0.9264478899098806	-0.5639526711743724	0.0	0.9264351942276359	-0.5649978935886925	0.0	0.9394683159332148	-0.664541552588582	0.0	0.9190335778799241	-0.7630502416493301	0.0	0.9560913404036863	-0.7820984897359673	0.0	0.9452037806258102	-0.7857786346996026	0.0	0.9117044256681087	-0.7788139625366225	0.0	0.9246859088381076	-0.5635740014791069	0.0	0.937275268289792	-0.6639417838428674	0.0	0.9185884725672926	-0.7580231399133897	0.0	0.9573919532302133	-0.777812419365815	0.0	0.9515367884982351	-0.7758464568979905	0.0	0.908283414870057	-0.7708492010293779	0.0	0.939795924270539	-0.4344008548711702	0.0	0.9535149492982739	-0.3722463641863431	0.0	0.9674870293803886	-0.402412260586385	0.0	0.9322924933720149	-0.453297371894766	0.0	0.9243545277542843	-0.5154737797463428	0.0	0.9399730872563344	-0.5709390282264035	0.0	0.9355705744575172	-0.4524611772024832	0.0	0.9351615951783995	-0.5091224939096032	0.0	0.9505647879613983	-0.5552197416666135	0.0
141	4.729559748427672	0.9258947661875447	-0.5717450295548435	0.0	0.9258410880656471	-0.572392300231386	0.0	0.9364570518778493	-0.6716820947398421	0.0	0.9183682207904555	-0.7705260951321136	0.0	0.9551740281647101	-0.7891890413968012	0.0	0.9448074701427465	-0.792743038789813	0.0	0.9115498141883085	-0.7861942263392931	0.0	0.924342700293619	-0.5708406854813628	0.0	0.934907882081179	-0.6710474870232555	0.0	0.9178942786922858	-0.7658789401027694	0.0	0.9565584261917862	-0.7850233104108092	0.0	0.9504892169360009	-0.7833473849252501	0.0	0.9081511435832862	-0.7785882227380597	0.0	0.9391211367170835	-0.4417312767258351	0.0	0.9518819839260566	-0.3796760340112202	0.0	0.966544577577882	-0.40977877438917326	0.0	0.9313477957319883	-0.46126474152252134	0.0	0.925338408116482	-0.5240080961752701	0.0	0.9428472211393979	-0.5800008473486856	0.0	0.9355326625822962	-0.46028903739990756	0.0	0.9368709048139968	-0.5168618809892455	0.0	0.9546788973122899	-0.5605252531262406	0.0
142	4.763102725366876	0.9250458406336285	-0.5805600001864006	0.0	0.9251257124501527	-0.5807949630303961	0.0	0.9342595319118755	-0.6793746063226083	0.0	0.9178602847737272	-0.7783641623679621	0.0	0.9543629073755727	-0.7966098536066231	0.0	0.9444845398681276	-0.7999919112953836	0.0	0.9115286815655586	-0.793892919044587	0.0	0.9236925242482686	-0.5790821555025372	0.0	0.9332768175088308	-0.6786859677986261	0.0	0.9173688110631194	-0.7740046986401508	0.0	0.9559351261054887	-0.7925019559161546	0.0	0.9496336671106945	-0.7909964208150714	0.0	0.9081063831907292	-0.7866286883702021	0.0	0.9384037889488747	-0.4500454046843873	0.0	0.9502887114431722	-0.38809979879523343	0.0	0.9655682624113082	-0.418048745636875	0.0	0.9304149645140676	-0.47029269574946975	0.0	0.9264387728313169	-0.5338085541142666	0.0	0.9457190718659126	-0.5901930225256696	0.0	0.935374183849921	-0.4691250475202163	0.0	0.9383170950293348	-0.5260395073066881	0.0	0.9586879035778534	-0.5682038516366479	0.0
143	4.796645702306079	0.9241359332215212	-0.5892138010926721	0.0	0.9244971150729847	-0.5891303167873921	0.0	0.932681489292714	-0.6867725408780729	0.0	0.9174843660749747	-0.7856944679465516	0.0	0.9535969843140073	-0.8034819690495456	0.0	0.9440346992044145	-0.8067234388038151	0.0	0.9115561219882317	-0.8010914538476887	0.0	0.9229689676491086	-0.587294253526082	0.0	0.9321313636129296	-0.6860469476149771	0.0	0.9169957726835886	-0.7815699366199101	0.0	0.9553879766883052	-0.7994673120388205	0.0	0.9489687308724027	-0.7980165876413619	0.0	0.9081293175542372	-0.7941067189504387	0.0	0.9376913897243635	-0.45819760371796175	0.0	0.9488419217606255	-0.39640074183957547	0.0	0.9645616967305892	-0.4261552155458646	0.0	0.9294857928244927	-0.4790754159504441	0.0	0.92733812757173	-0.5433311586670044	0.0	0.9481546601296031	-0.5997857241462149	0.0	0.9350690371394891	-0.47778374368077514	0.0	0.9393513991397459	-0.535320685843402	0.0	0.9618769571133698	-0.5772394623982318	0.0
144	4.830188679245282	0.923433772621766	-0.596647804231813	0.0	0.9241258841550269	-0.5963571513040374	0.0	0.9314576747856295	-0.6930666715068656	0.0	0.9171620224622845	-0.7916779574835768	0.0	0.9527772640770755	-0.8089942982518765	0.0	0.9432790142770598	-0.8121568535807341	0.0	0.911513707726839	-0.8069766923037686	0.0	0.9224152583636926	-0.5945033516236032	0.0	0.9312146346874236	-0.6923601278109833	0.0	0.9167471005026515	-0.7877670245145478	0.0	0.9547847928856111	-0.8051607734523205	0.0	0.9484217348336026	-0.8036970143662	0.0	0.9081460308642588	-0.8002018265992422	0.0	0.936976729941249	-0.46509523254657	0.0	0.9475498203837414	-0.4034307476919829	0.0	0.9635708267502986	-0.43302934968086565	0.0	0.9285873439727097	-0.4864034700230492	0.0	0.9277561496360597	-0.551219589975163	0.0	0.9497666444129018	-0.6075008994419413	0.0	0.934573218096587	-0.48510286028409766	0.0	0.93971037254064	-0.5433885134734388	0.0	0.9634186098191628	-0.5863344943478834	0.0
145	4.863731656184486	0.9230935279634342	-0.602086448484133	0.0	0.9240583231279534	-0.6016384331902035	0.0	0.93034327155486	-0.6975539406367935	0.0	0.9168235693275438	-0.7956775609582979	0.0	0.9519013822114389	-0.8125258806735328	0.0	0.9422179378114723	-0.8156580349623361	0.0	0.911354206869459	-0.8108972880418955	0.0	0.9221787783777299	-0.5998819665887377	0.0	0.9303502005476695	-0.6969527637005651	0.0	0.9165809969075457	-0.7919453067185224	0.0	0.9540775941415265	-0.8089398436857678	0.0	0.9479262949568623	-0.8074601055809557	0.0	0.908091272387316	-0.8043132364414962	0.0	0.9362535629894815	-0.46984722529345285	0.0	0.9463451098255888	-0.408241676316858	0.0	0.9626877459440348	-0.4377721006744582	0.0	0.9277963862452971	-0.49135634694806457	0.0	0.9275675132382032	-0.5565063571353687	0.0	0.9502760520748654	-0.6125686321186937	0.0	0.9338876773500775	-0.49011273786847226	0.0	0.9392074284069765	-0.5491671739803166	0.0	0.9627590121482089	-0.5941711973043781	0.0
146	4.897274633123689	0.9230962974570365	-0.6050793715972468	0.0	0.9242110730508821	-0.6044533293522192	0.0	0.9292023680794271	-0.6997513452502732	0.0	0.9164451894370882	-0.7973182010796938	0.0	0.9510889378629983	-0.8136937766153096	0.0	0.941040619633403	-0.8168328653589693	0.0	0.9111288202727261	-0.8124783293627879	0.0	0.9222857935975721	-0.6028610409197771	0.0	0.929471803077755	-0.6993286549929324	0.0	0.9164635066043744	-0.7936750134698703	0.0	0.9533084945007257	-0.8103363575307604	0.0	0.9474602159246788	-0.8088721584516634	0.0	0.9079680787190172	-0.8061008942330806	0.0	0.9355703242555242	-0.4718813265938181	0.0	0.9452057276348641	-0.4102536544918951	0.0	0.9620141732255507	-0.43978842093511417	0.0	0.9271974290412026	-0.4934171999616973	0.0	0.9268224123557154	-0.5586685074392322	0.0	0.9495071450568761	-0.6146363152751048	0.0	0.9331019240594083	-0.4921987054760591	0.0	0.9378499098624923	-0.5519378377066306	0.0	0.9598927415504915	-0.5996088331775195	0.0
147	4.930817610062892	0.923296509482293	-0.6054306347680379	0.0	0.9244327595766542	-0.6045877775500262	0.0	0.9280347799273807	-0.6994950512535605	0.0	0.9160458107335531	-0.796493140307624	0.0	0.9505232415156972	-0.8124132729568981	0.0	0.940027476309091	-0.8156101317956794	0.0	0.9109126717469128	-0.8116677835093914	0.0	0.9226662073556322	-0.6031776761872304	0.0	0.9286019786421859	-0.6992647665370653	0.0	0.9163798210376982	-0.7928089027243659	0.0	0.9526019400751964	-0.8091770605116759	0.0	0.947073081533628	-0.8077336078964462	0.0	0.9078281257593636	-0.8054751521446919	0.0	0.935005301888587	-0.4710324333234241	0.0	0.944213723323381	-0.4093087788560376	0.0	0.9616131717375539	-0.4388801423126257	0.0	0.9268456475346102	-0.4924820912856668	0.0	0.9257065943854628	-0.5576359446885211	0.0	0.9474360684363456	-0.6137050607311528	0.0	0.9323728753491916	-0.49120762536889145	0.0	0.9358557111194894	-0.551414363161448	0.0	0.9553987921668492	-0.6018482929356052	0.0
148	4.964360587002096	0.9235454929477626	-0.6031448092336443	0.0	0.9246158126761749	-0.6020839699501971	0.0	0.9269409161633003	-0.6969261418113581	0.0	0.9156872423003485	-0.793360903130473	0.0	0.9503622552817806	-0.8089209463258341	0.0	0.9394136311580911	-0.8122476335664862	0.0	0.9107431751216949	-0.8086686058563033	0.0	0.9232088977948528	-0.6008576416384446	0.0	0.92781319904015	-0.6968436507552364	0.0	0.9163353066378834	-0.7895092896474747	0.0	0.9521169227419115	-0.8056745817180027	0.0	0.9468776389727465	-0.8041983603731472	0.0	0.9077080263877042	-0.8025672140849542	0.0	0.9346175467222191	-0.4675433695998465	0.0	0.9434712897354657	-0.40563476091099615	0.0	0.9614801321792166	-0.4352758319052	0.0	0.9267765666917707	-0.4887963119113642	0.0	0.9244774769935497	-0.5537331176241161	0.0	0.9443127803676166	-0.6100198263182035	0.0	0.9318868317272845	-0.48745576260924284	0.0	0.9336387613342791	-0.547798216579243	0.0	0.9502564990814149	-0.6006367626097531	0.0
149	4.997903563941299	0.9237787714853554	-0.5984635815485343	0.0	0.9247621400920484	-0.5972538927435531	0.0	0.9260512256027987	-0.6924087262953648	0.0	0.9154727267432011	-0.7883232639160935	0.0	0.950663228189845	-0.8037276782893081	0.0	0.9392815737523351	-0.8072445477728275	0.0	0.9106307873153915	-0.8038553109491116	0.0	0.92379909513858	-0.5962126113336127	0.0	0.9271802189360817	-0.6924009325384581	0.0	0.9163469432619911	-0.7842032099683245	0.0	0.9519532251833246	-0.8004043360830256	0.0	0.9469608860606694	-0.7987954581889132	0.0	0.9076117904551291	-0.797705149469066	0.0	0.9344348782334649	-0.4619898115939373	0.0	0.9430021430685047	-0.399775608805465	0.0	0.961541827074377	-0.42956081732714957	0.0	0.9270151074732869	-0.48289832075278927	0.0	0.9233847368199459	-0.5475587706187232	0.0	0.9406972964067886	-0.604007547851495	0.0	0.9317918845988592	-0.4816178659617262	0.0	0.9316981596701326	-0.5417380442221011	0.0	0.9455046618530428	-0.5963719369024439	0.0
150	5.031446540880502	0.924002862592215	-0.5919486928141052	0.0	0.9249326090415997	-0.5907367257044402	0.0	0.9254434309870646	-0.6865153791593404	0.0	0.915493687510644	-0.7820140437192673	0.0	0.9513940491664201	-0.7975492398057645	0.0	0.9395892017257682	-0.8012654376526099	0.0	0.9105807719090321	-0.797803668876216	0.0	0.9243444632404639	-0.58986485730976	0.0	0.9267356979356869	-0.6865016961195533	0.0	0.9164437619011907	-0.7775541252691394	0.0	0.9521295339141927	-0.7941870072404504	0.0	0.947340093973223	-0.7923356095780237	0.0	0.907552842843647	-0.7914588513427806	0.0	0.9344605069032852	-0.4551651244828885	0.0	0.9427363201402104	-0.3925401125542292	0.0	0.961691536807596	-0.42255902388327066	0.0	0.9275534691123849	-0.47559113825108146	0.0	0.9226002379259794	-0.5399188417190965	0.0	0.9372802775478384	-0.5963599846083655	0.0	0.9321233388970247	-0.47455277737677065	0.0	0.9304121000691251	-0.5341916347277769	0.0	0.9418842773951676	-0.5899809469280355	0.0
151	5.064989517819706	0.9242370207227393	-0.5845185896469953	0.0	0.9251704998846279	-0.5835115927684764	0.0	0.9251019133371912	-0.6800566108220002	0.0	0.9157549504516647	-0.7752771378880801	0.0	0.9524408834614578	-0.7912185286176446	0.0	0.9402246160259837	-0.7950965882650312	0.0	0.9105949058990899	-0.7913227489474458	0.0	0.9247933190260458	-0.5827432461487873	0.0	0.9264464322003129	-0.6799574425300428	0.0	0.9166594975485249	-0.7704553739915445	0.0	0.9525961198005054	-0.7879175141503936	0.0	0.9479755452536818	-0.7857498181503311	0.0	0.9075810038344415	-0.7846660217143734	0.0	0.9346748437446777	-0.4479481107950191	0.0	0.9425994518646159	-0.3849168501193189	0.0	0.9618470496504327	-0.41522406103958837	0.0	0.9283373879520644	-0.4678717045541602	0.0	0.9221902015484837	-0.5317950386969756	0.0	0.9346006668687294	-0.5880755037349347	0.0	0.9327723262858846	-0.4671739054128707	0.0	0.9298800759708455	-0.5262440566812566	0.0	0.9396513748080209	-0.5826469154680276	0.0
